<svg width="316" height="260" viewBox="0 0 316 260" fill="none" xmlns="http://www.w3.org/2000/svg">
<path d="M18.9445 114.309L31.5696 89.0569L94.7107 89.0531L109.954 107.122L108.872 114.309L75.77 114.309L78.9271 107.999L53.6706 107.999L50.512 114.309L18.9445 114.309Z" fill="white"/>
<path d="M0.000291647 161.665L17.6358 120.623L49.4712 120.623L41.0421 139.565L66.2986 139.565L74.3543 120.623L106.797 120.623L94.7122 145.88L69.4557 161.665L0.000291647 161.665Z" fill="white"/>
<path d="M116.812 114.309L128.897 89.0569L157.853 89.0518L145.225 114.309L116.812 114.309Z" fill="white"/>
<path d="M143.166 120.623L113.654 120.623L94.7118 161.664L183.11 161.664L192.581 139.565L135.754 139.565L143.166 120.623Z" fill="white"/>
<path d="M214.68 107.994L210.98 114.309C213.505 114.31 234.131 114.308 242.551 114.307L248.865 104.836L274.122 105.38L270.965 114.307L301.219 114.307L303.078 107.993L287.293 89.0507L243.094 89.0569L214.68 107.994Z" fill="white"/>
<path d="M239.394 120.621L208.367 120.621L198.895 142.72L214.68 161.662L258.88 161.664L290.45 142.72L296.765 130.092L264.65 129.222L258.88 139.564L230.467 139.564L239.394 120.621Z" fill="white"/>
<path d="M19.329 113.655H309.263L315.706 119.969H0L19.329 113.655Z" fill="#EFEE08"/>
</svg>
